<svg width="84" height="12" viewBox="0 0 84 12" fill="none" xmlns="http://www.w3.org/2000/svg">
<path d="M0.884943 11H3.03764V6.79403H7.40767V11H9.5554V0.818182H7.40767V5.01918H3.03764V0.818182H0.884943V11ZM13.0852 11L13.8409 8.67827H17.5149L18.2706 11H20.5774L17.0675 0.818182H14.2933L10.7784 11H13.0852ZM14.3878 6.99787L15.6406 3.14489H15.7202L16.973 6.99787H14.3878ZM27.0939 3.74645H29.1571C29.1273 1.93182 27.6358 0.678977 25.3688 0.678977C23.1365 0.678977 21.5009 1.91193 21.5108 3.76136C21.5059 5.26278 22.5648 6.12287 24.285 6.53551L25.3936 6.81392C26.5023 7.08239 27.1188 7.40057 27.1238 8.08665C27.1188 8.83239 26.4128 9.33949 25.3191 9.33949C24.2005 9.33949 23.3951 8.82244 23.3255 7.80327H21.2424C21.2971 10.0057 22.873 11.1442 25.3439 11.1442C27.8297 11.1442 29.2914 9.95597 29.2963 8.09162C29.2914 6.39631 28.0137 5.49645 26.2438 5.09872L25.329 4.87997C24.4441 4.67614 23.7033 4.34801 23.7182 3.61719C23.7182 2.96094 24.2999 2.47869 25.3539 2.47869C26.383 2.47869 27.0144 2.94602 27.0939 3.74645ZM30.7443 11H32.897V6.79403H37.267V11H39.4148V0.818182H37.267V5.01918H32.897V0.818182H30.7443V11ZM44.7779 11H46.0108V6.44602H50.4256V5.35227H46.0108V1.91193H50.883V0.818182H44.7779V11ZM55.3773 11.1591C57.4455 11.1591 58.8375 9.58807 58.8375 7.22159C58.8375 4.83523 57.4455 3.2642 55.3773 3.2642C53.3091 3.2642 51.9171 4.83523 51.9171 7.22159C51.9171 9.58807 53.3091 11.1591 55.3773 11.1591ZM55.3773 10.1051C53.8063 10.1051 53.0904 8.75284 53.0904 7.22159C53.0904 5.69034 53.8063 4.31818 55.3773 4.31818C56.9483 4.31818 57.6642 5.69034 57.6642 7.22159C57.6642 8.75284 56.9483 10.1051 55.3773 10.1051ZM60.6286 11H61.8018V6.16761C61.8018 5.13352 62.6172 4.37784 63.7308 4.37784C64.044 4.37784 64.3672 4.4375 64.4467 4.45739V3.2642C64.3125 3.25426 64.0043 3.24432 63.8303 3.24432C62.9155 3.24432 62.12 3.76136 61.8416 4.51705H61.7621V3.36364H60.6286V11ZM70.65 7.87784C70.65 9.30966 69.5563 9.96591 68.6813 9.96591C67.7069 9.96591 67.0108 9.25 67.0108 8.13636V3.36364H65.8375V8.21591C65.8375 10.1648 66.8716 11.0994 68.3034 11.0994C69.4569 11.0994 70.2125 10.483 70.5705 9.70739H70.65V11H71.8233V3.36364H70.65V7.87784ZM73.9723 11H75.1456V6.22727C75.1456 5.10866 75.9609 4.31818 76.8757 4.31818C77.7656 4.31818 78.3871 4.89986 78.3871 5.76989V11H79.5803V6.02841C79.5803 5.04403 80.1967 4.31818 81.2706 4.31818C82.1058 4.31818 82.8217 4.76065 82.8217 5.8892V11H83.995V5.8892C83.995 4.09446 83.0305 3.2642 81.6683 3.2642C80.5746 3.2642 79.7741 3.76633 79.3814 4.55682H79.3018C78.924 3.74148 78.2578 3.2642 77.2536 3.2642C76.2592 3.2642 75.5234 3.74148 75.2053 4.55682H75.1058V3.36364H73.9723V11Z" fill="black"/>
</svg>
