<svg width="14" height="12" viewBox="0 0 14 12" fill="none" xmlns="http://www.w3.org/2000/svg">
<path fill-rule="evenodd" clip-rule="evenodd" d="M13.875 1.875C13.875 1.11188 13.2631 0.5 12.5 0.5H1.5C0.736875 0.5 0.131875 1.11188 0.131875 1.875L0.125 10.125C0.125 10.8881 0.736875 11.5 1.5 11.5H12.5C13.2631 11.5 13.875 10.8881 13.875 10.125V1.875ZM4.59375 3.9375V8.0625H3.76875L2.01562 5.65625V8.0625H1.15625V3.9375H2.01562L3.73438 6.34375V3.9375H4.59375ZM8.03125 4.80375V3.9375H5.28125V8.0625H8.03125V7.20312H6.3125V6.44H8.03125V5.57375H6.3125V4.80375H8.03125ZM11.9844 3.9375H12.8438V7.375C12.8438 7.75313 12.5344 8.0625 12.1562 8.0625H9.40625C9.02812 8.0625 8.71875 7.75313 8.71875 7.375V3.9375H9.57812V7.03813H10.355V4.61812H11.2144V7.03125H11.9844V3.9375Z" fill="black"/>
</svg>
